<?xml version="1.0" standalone="no"?>
<!DOCTYPE svg PUBLIC "-//W3C//DTD SVG 20010904//EN"
 "http://www.w3.org/TR/2001/REC-SVG-20010904/DTD/svg10.dtd">
<svg version="1.0" xmlns="http://www.w3.org/2000/svg"
 width="1300.000000pt" height="1300.000000pt" viewBox="0 0 1300.000000 1300.000000"
 preserveAspectRatio="xMidYMid meet">
<metadata>
Created by potrace 1.16, written by Peter Selinger 2001-2019
</metadata>
<g transform="translate(0.000000,1300.000000) scale(0.100000,-0.100000)"
fill="#c41d1d" stroke="none">
<path d="M4160 10456 c-277 -83 -542 -242 -777 -463 -54 -51 -84 -84 -170
-186 -13 -15 -51 -69 -87 -121 -189 -279 -306 -621 -326 -949 -16 -270 16
-518 96 -755 73 -215 224 -484 359 -637 34 -38 74 -85 90 -102 42 -49 106 -76
155 -68 69 12 130 81 130 148 0 38 -40 102 -110 174 -36 38 -72 78 -80 89 -8
12 -34 48 -57 81 -76 108 -161 277 -199 392 -127 387 -125 731 7 1108 44 126
175 369 212 394 6 4 7 14 4 22 -4 11 -1 14 8 11 8 -3 19 4 26 18 17 33 140
163 216 230 65 57 201 153 283 200 62 36 219 102 316 133 51 17 91 36 107 53
73 77 38 214 -62 242 -48 13 -54 13 -141 -14z"/>
<path d="M8674 10460 c-28 -14 -46 -33 -58 -58 -49 -111 -9 -181 129 -227 103
-34 270 -107 336 -146 423 -249 705 -646 800 -1124 30 -154 33 -427 6 -572
-63 -333 -199 -609 -425 -858 -42 -47 -77 -96 -84 -117 -35 -116 94 -223 205
-169 42 20 138 118 210 215 21 28 43 58 50 66 115 146 248 435 306 665 168
662 -39 1383 -533 1858 -206 198 -466 359 -722 446 -127 43 -169 47 -220 21z"/>
<path d="M6337 9843 c-4 -3 -7 -45 -7 -93 l0 -87 -110 -21 c-199 -40 -384
-116 -555 -231 -236 -158 -463 -438 -543 -672 -17 -48 -36 -97 -43 -110 -7
-13 -16 -40 -20 -59 -4 -19 -15 -64 -25 -100 -15 -57 -18 -161 -24 -835 -6
-658 -10 -783 -24 -858 -45 -236 -116 -402 -221 -514 -96 -104 -237 -173 -352
-173 l-53 0 0 -110 0 -110 2140 0 2140 0 0 110 0 110 -48 0 c-26 0 -76 8 -112
19 -242 69 -391 283 -466 668 -15 77 -18 179 -21 808 -3 807 -5 840 -73 1045
-56 172 -129 312 -233 450 -61 80 -210 229 -296 294 -158 119 -399 225 -613
269 l-111 22 2 93 2 92 -164 0 c-90 0 -167 -3 -170 -7z"/>
<path d="M4174 9725 c-241 -82 -438 -230 -581 -437 -18 -26 -33 -50 -33 -53 0
-3 -12 -24 -26 -47 -39 -62 -79 -163 -105 -269 -20 -81 -23 -118 -23 -264 0
-157 3 -179 31 -287 58 -217 221 -480 335 -539 75 -39 165 -10 199 64 10 23
19 49 19 57 0 40 -25 90 -70 140 -105 115 -184 272 -210 416 -8 45 -11 117 -8
195 6 145 32 236 103 363 25 43 42 82 39 87 -3 5 -1 8 4 7 5 -2 42 31 83 72
112 113 198 167 343 216 99 34 136 75 136 148 0 69 -30 115 -93 141 -48 20
-59 19 -143 -10z"/>
<path d="M8678 9732 c-88 -40 -115 -141 -59 -219 24 -33 42 -44 107 -68 227
-81 368 -199 477 -396 68 -123 90 -207 95 -364 3 -119 1 -152 -17 -221 -37
-143 -108 -275 -204 -376 -59 -63 -76 -121 -53 -181 30 -79 119 -117 197 -84
32 13 108 91 172 177 60 82 145 267 173 381 26 102 28 131 28 279 0 182 -14
265 -73 412 -35 88 -126 247 -147 255 -8 3 -14 12 -14 20 0 24 -169 185 -250
238 -94 62 -206 117 -294 144 -82 25 -90 25 -138 3z"/>
<path d="M5900 5722 c0 -5 9 -35 20 -68 55 -159 224 -324 384 -373 137 -42
302 -37 429 14 167 68 320 240 363 410 l6 25 -601 0 c-331 0 -601 -4 -601 -8z"/>
<path d="M4877 4710 c-60 -11 -187 -48 -187 -56 0 -4 7 -3 16 0 8 3 12 2 9 -3
-3 -6 -18 -9 -34 -9 -16 1 -35 -4 -42 -11 -8 -6 -33 -25 -57 -42 -23 -17 -40
-35 -37 -40 4 -5 0 -6 -8 -3 -17 6 -88 -94 -115 -162 -54 -135 -53 -310 1
-439 49 -118 155 -242 282 -329 76 -51 255 -166 261 -166 2 0 36 -23 74 -51
81 -59 145 -128 171 -184 38 -82 16 -214 -46 -271 -13 -12 -50 -32 -82 -44
-103 -39 -253 -8 -307 63 -29 39 -56 116 -56 162 l0 35 -190 0 -190 0 0 -42
c1 -72 27 -194 54 -253 87 -191 249 -308 466 -335 242 -31 449 28 588 168 97
97 146 201 164 346 23 194 -40 374 -182 517 -75 75 -226 182 -384 270 -200
113 -286 214 -292 345 -1 35 2 64 6 64 5 0 6 7 3 17 -4 10 -2 14 5 10 6 -4 20
6 31 22 45 62 162 89 266 60 70 -20 123 -95 140 -201 l6 -38 190 0 190 0 -6
53 c-20 175 -70 293 -165 387 -63 63 -172 130 -178 110 -2 -6 -8 -10 -13 -10
-6 0 -8 4 -4 9 23 38 -217 73 -348 51z"/>
<path d="M7897 4709 c-133 -18 -259 -81 -345 -173 -160 -171 -183 -455 -56
-674 66 -112 194 -222 436 -372 166 -104 275 -197 307 -264 28 -56 28 -164 2
-222 -57 -126 -264 -163 -397 -72 -44 31 -82 101 -90 171 l-7 57 -190 0 -190
0 7 -71 c9 -103 23 -153 68 -249 103 -218 329 -334 614 -316 120 8 189 24 274
65 220 107 336 320 316 583 -18 235 -141 400 -435 578 -258 157 -332 211 -377
275 -68 98 -52 243 33 299 47 31 156 44 220 27 81 -22 139 -95 150 -192 l6
-49 188 0 189 0 0 35 c0 63 -31 188 -64 260 -64 139 -199 248 -359 291 -70 18
-216 25 -300 13z"/>
<path d="M6355 4701 c-267 -58 -431 -218 -495 -483 -19 -77 -20 -118 -20 -593
-1 -550 1 -577 52 -710 54 -141 142 -243 264 -307 118 -62 169 -73 344 -73
169 0 214 8 315 57 174 85 274 218 326 436 19 79 20 111 16 620 -4 599 -2 581
-77 737 -67 140 -194 244 -357 295 -76 24 -297 36 -368 21z m246 -362 c58 -18
105 -63 141 -137 l33 -67 0 -520 0 -520 -29 -60 c-17 -33 -29 -62 -27 -63 6
-7 -52 -61 -60 -57 -4 3 -20 0 -36 -6 -53 -20 -123 -28 -168 -20 -41 8 -44 7
-33 -8 7 -9 -2 -3 -20 12 -19 15 -39 27 -47 27 -17 0 -80 70 -98 111 -34 75
-37 114 -37 584 0 528 2 550 67 638 49 67 113 97 207 97 38 0 86 -5 107 -11z"/>
</g>
</svg>
